{
  "accessors": [
    {
      "bufferView": 2,
      "componentType": 5126,
      "count": 7498,
      "max": [
        1.2215555906295776,
        0.19287246465682983,
        1.535844087600708
      ],
      "min": [
        -1.2215555906295776,
        -4.656132698059082,
        -0.562223494052887
      ],
      "type": "VEC3"
    },
    {
      "bufferView": 2,
      "byteOffset": 89976,
      "componentType": 5126,
      "count": 7498,
      "max": [
        1.0,
        1.0,
        1.0
      ],
      "min": [
        -1.0,
        -1.0,
        -1.0
      ],
      "type": "VEC3"
    },
    {
      "bufferView": 3,
      "componentType": 5126,
      "count": 7498,
      "max": [
        1.0,
        1.0,
        1.0,
        1.0
      ],
      "min": [
        -1.0,
        -1.0,
        -1.0,
        -1.0
      ],
      "type": "VEC4"
    },
    {
      "bufferView": 1,
      "componentType": 5126,
      "count": 7498,
      "max": [
        0.998471736907959,
        0.9978148341178894
      ],
      "min": [
        0.00048828125,
        0.00048828125
      ],
      "type": "VEC2"
    },
    {
      "bufferView": 0,
      "componentType": 5125,
      "count": 26862,
      "type": "SCALAR"
    },
    {
      "bufferView": 2,
      "byteOffset": 179952,
      "componentType": 5126,
      "count": 11614,
      "max": [
        1.2263367176055908,
        -0.19659215211868286,
        1.539246678352356
      ],
      "min": [
        -1.2263365983963013,
        -3.246196746826172,
        -0.10755128413438797
      ],
      "type": "VEC3"
    },
    {
      "bufferView": 2,
      "byteOffset": 319320,
      "componentType": 5126,
      "count": 11614,
      "max": [
        1.0,
        1.0,
        1.0
      ],
      "min": [
        -1.0,
        -1.0,
        -1.0
      ],
      "type": "VEC3"
    },
    {
      "bufferView": 3,
      "byteOffset": 119968,
      "componentType": 5126,
      "count": 11614,
      "max": [
        1.0,
        1.0,
        1.0,
        1.0
      ],
      "min": [
        -1.0,
        -1.0,
        -0.9999985098838806,
        -1.0
      ],
      "type": "VEC4"
    },
    {
      "bufferView": 1,
      "byteOffset": 59984,
      "componentType": 5126,
      "count": 11614,
      "max": [
        0.992877721786499,
        0.9934889674186707
      ],
      "min": [
        0.00048828125,
        0.00048828125
      ],
      "type": "VEC2"
    },
    {
      "bufferView": 0,
      "byteOffset": 107448,
      "componentType": 5125,
      "count": 49167,
      "type": "SCALAR"
    },
    {
      "bufferView": 2,
      "byteOffset": 458688,
      "componentType": 5126,
      "count": 10344,
      "max": [
        1.256411075592041,
        -0.2047853171825409,
        1.0406794548034668
      ],
      "min": [
        -1.2608720064163208,
        -4.291259765625,
        -0.882254958152771
      ],
      "type": "VEC3"
    },
    {
      "bufferView": 2,
      "byteOffset": 582816,
      "componentType": 5126,
      "count": 10344,
      "max": [
        1.0,
        0.9770615100860596,
        0.9943931102752686
      ],
      "min": [
        -1.0,
        -0.9772342443466187,
        -0.9943944811820984
      ],
      "type": "VEC3"
    },
    {
      "bufferView": 3,
      "byteOffset": 305792,
      "componentType": 5126,
      "count": 10344,
      "max": [
        0.9996039867401123,
        0.97809237241745,
        0.9913462996482849,
        1.0
      ],
      "min": [
        -0.9913462996482849,
        -0.971817135810852,
        -0.9996039867401123,
        -1.0
      ],
      "type": "VEC4"
    },
    {
      "bufferView": 1,
      "byteOffset": 152896,
      "componentType": 5126,
      "count": 10344,
      "max": [
        0.9896397590637207,
        0.9959715604782104
      ],
      "min": [
        0.001953125,
        0.00044537719804793596
      ],
      "type": "VEC2"
    },
    {
      "bufferView": 0,
      "byteOffset": 304116,
      "componentType": 5125,
      "count": 42048,
      "type": "SCALAR"
    },
    {
      "bufferView": 2,
      "byteOffset": 706944,
      "componentType": 5126,
      "count": 13397,
      "max": [
        0.07024579495191574,
        -2.5788795948028564,
        2.2974188327789307
      ],
      "min": [
        -0.21898600459098816,
        -3.0197525024414063,
        0.44166895747184753
      ],
      "type": "VEC3"
    },
    {
      "bufferView": 2,
      "byteOffset": 867708,
      "componentType": 5126,
      "count": 13397,
      "max": [
        1.0,
        0.9999987483024597,
        0.9999993443489075
      ],
      "min": [
        -1.0,
        -0.9999938607215881,
        -0.9988365769386292
      ],
      "type": "VEC3"
    },
    {
      "bufferView": 3,
      "byteOffset": 471296,
      "componentType": 5126,
      "count": 13397,
      "max": [
        1.0,
        0.9999366402626038,
        0.9999998807907104,
        1.0
      ],
      "min": [
        -1.0,
        -0.9999151229858398,
        -0.9999987483024597,
        -1.0
      ],
      "type": "VEC4"
    },
    {
      "bufferView": 1,
      "byteOffset": 235648,
      "componentType": 5126,
      "count": 13397,
      "max": [
        0.998046875,
        0.9903802275657654
      ],
      "min": [
        0.001953125,
        0.001953125
      ],
      "type": "VEC2"
    },
    {
      "bufferView": 0,
      "byteOffset": 472308,
      "componentType": 5125,
      "count": 51168,
      "type": "SCALAR"
    }
  ],
  "asset": {
    "extras": {
      "author": "Daniil Sievierinov (https://sketchfab.com/danokk)",
      "license": "SKETCHFAB Standard (https://sketchfab.com/licenses)",
      "source": "https://sketchfab.com/3d-models/jeep-ab2a10f4e4434307837b5041c329f2a7",
      "title": "Jeep"
    },
    "generator": "Sketchfab-16.59.0",
    "version": "2.0"
  },
  "bufferViews": [
    {
      "buffer": 0,
      "byteLength": 676980,
      "name": "floatBufferViews",
      "target": 34963
    },
    {
      "buffer": 0,
      "byteLength": 342824,
      "byteOffset": 676980,
      "byteStride": 8,
      "name": "floatBufferViews",
      "target": 34962
    },
    {
      "buffer": 0,
      "byteLength": 1028472,
      "byteOffset": 1019804,
      "byteStride": 12,
      "name": "floatBufferViews",
      "target": 34962
    },
    {
      "buffer": 0,
      "byteLength": 685648,
      "byteOffset": 2048276,
      "byteStride": 16,
      "name": "floatBufferViews",
      "target": 34962
    }
  ],
  "buffers": [
    {
      "byteLength": 2733924,
      "uri": "scene.bin"
    }
  ],
  "extensionsUsed": [
    "KHR_materials_specular"
  ],
  "images": [
    {
      "uri": "textures/HULL_baseColor.png"
    },
    {
      "uri": "textures/HULL_metallicRoughness.png"
    },
    {
      "uri": "textures/HULL_normal.png"
    },
    {
      "uri": "textures/DASHBOARD_baseColor.png"
    },
    {
      "uri": "textures/DASHBOARD_metallicRoughness.png"
    },
    {
      "uri": "textures/DASHBOARD_normal.png"
    },
    {
      "uri": "textures/Material.001_baseColor.png"
    },
    {
      "uri": "textures/Material.001_metallicRoughness.png"
    },
    {
      "uri": "textures/Material.001_normal.png"
    },
    {
      "uri": "textures/radio_baseColor.png"
    },
    {
      "uri": "textures/radio_normal.png"
    }
  ],
  "materials": [
    {
      "doubleSided": true,
      "extensions": {
        "KHR_materials_specular": {
          "specularColorFactor": [
            1.0,
            1.0,
            1.0
          ],
          "specularFactor": 0.0
        }
      },
      "name": "HULL",
      "normalTexture": {
        "index": 2
      },
      "pbrMetallicRoughness": {
        "baseColorTexture": {
          "index": 0
        },
        "metallicRoughnessTexture": {
          "index": 1
        }
      }
    },
    {
      "doubleSided": true,
      "name": "DASHBOARD",
      "normalTexture": {
        "index": 5
      },
      "occlusionTexture": {
        "index": 4,
        "strength": 0.18888521193878482
      },
      "pbrMetallicRoughness": {
        "baseColorTexture": {
          "index": 3
        },
        "metallicRoughnessTexture": {
          "index": 4
        }
      }
    },
    {
      "doubleSided": true,
      "extensions": {
        "KHR_materials_specular": {
          "specularColorFactor": [
            1.0,
            1.0,
            1.0
          ],
          "specularFactor": 0.0
        }
      },
      "name": "Material.001",
      "normalTexture": {
        "index": 8
      },
      "pbrMetallicRoughness": {
        "baseColorTexture": {
          "index": 6
        },
        "metallicRoughnessTexture": {
          "index": 7
        }
      }
    },
    {
      "doubleSided": true,
      "name": "radio",
      "normalTexture": {
        "index": 10
      },
      "pbrMetallicRoughness": {
        "baseColorTexture": {
          "index": 9
        },
        "metallicRoughnessTexture": {
          "index": 7
        }
      }
    }
  ],
  "meshes": [
    {
      "name": "Cube.189_HULL_0",
      "primitives": [
        {
          "attributes": {
            "NORMAL": 1,
            "POSITION": 0,
            "TANGENT": 2,
            "TEXCOORD_0": 3
          },
          "indices": 4,
          "material": 0,
          "mode": 4
        }
      ]
    },
    {
      "name": "Cube.189_DASHBOARD_0",
      "primitives": [
        {
          "attributes": {
            "NORMAL": 6,
            "POSITION": 5,
            "TANGENT": 7,
            "TEXCOORD_0": 8
          },
          "indices": 9,
          "material": 1,
          "mode": 4
        }
      ]
    },
    {
      "name": "Cube.189_Material.001_0",
      "primitives": [
        {
          "attributes": {
            "NORMAL": 11,
            "POSITION": 10,
            "TANGENT": 12,
            "TEXCOORD_0": 13
          },
          "indices": 14,
          "material": 2,
          "mode": 4
        }
      ]
    },
    {
      "name": "Cube.189_radio_0",
      "primitives": [
        {
          "attributes": {
            "NORMAL": 16,
            "POSITION": 15,
            "TANGENT": 17,
            "TEXCOORD_0": 18
          },
          "indices": 19,
          "material": 3,
          "mode": 4
        }
      ]
    }
  ],
  "nodes": [
    {
      "children": [
        1
      ],
      "matrix": [
        1.0,
        0.0,
        0.0,
        0.0,
        0.0,
        2.220446049250313e-16,
        -1.0,
        0.0,
        0.0,
        1.0,
        2.220446049250313e-16,
        0.0,
        0.0,
        0.0,
        0.0,
        1.0
      ],
      "name": "Sketchfab_model"
    },
    {
      "children": [
        2
      ],
      "matrix": [
        0.009999999776482582,
        0.0,
        0.0,
        0.0,
        0.0,
        0.0,
        0.009999999776482582,
        0.0,
        0.0,
        -0.009999999776482582,
        0.0,
        0.0,
        0.0,
        0.0,
        0.0,
        1.0
      ],
      "name": "7eff3ddeded149a8ae52725e1e2806ea.fbx"
    },
    {
      "children": [
        3
      ],
      "name": "RootNode"
    },
    {
      "children": [
        4,
        5,
        6,
        7
      ],
      "matrix": [
        100.0,
        0.0,
        0.0,
        0.0,
        0.0,
        -2.8212996916465727e-05,
        -99.99999999999602,
        0.0,
        0.0,
        99.99999999999602,
        -2.8212996916465727e-05,
        0.0,
        0.0,
        90.34599304199219,
        -208.7371368408203,
        1.0
      ],
      "name": "Cube.189"
    },
    {
      "mesh": 0,
      "name": "Cube.189_HULL_0"
    },
    {
      "mesh": 1,
      "name": "Cube.189_DASHBOARD_0"
    },
    {
      "mesh": 2,
      "name": "Cube.189_Material.001_0"
    },
    {
      "mesh": 3,
      "name": "Cube.189_radio_0"
    }
  ],
  "samplers": [
    {
      "magFilter": 9729,
      "minFilter": 9987,
      "wrapS": 10497,
      "wrapT": 10497
    }
  ],
  "scene": 0,
  "scenes": [
    {
      "name": "Sketchfab_Scene",
      "nodes": [
        0
      ]
    }
  ],
  "textures": [
    {
      "sampler": 0,
      "source": 0
    },
    {
      "sampler": 0,
      "source": 1
    },
    {
      "sampler": 0,
      "source": 2
    },
    {
      "sampler": 0,
      "source": 3
    },
    {
      "sampler": 0,
      "source": 4
    },
    {
      "sampler": 0,
      "source": 5
    },
    {
      "sampler": 0,
      "source": 6
    },
    {
      "sampler": 0,
      "source": 7
    },
    {
      "sampler": 0,
      "source": 8
    },
    {
      "sampler": 0,
      "source": 9
    },
    {
      "sampler": 0,
      "source": 10
    }
  ]
}
